<svg width="181" height="181" viewBox="0 0 181 181" fill="none" xmlns="http://www.w3.org/2000/svg">
<circle cx="90.5" cy="90.5" r="90.5" fill="black"/>
<path d="M62.2159 121.119C56.3494 121.119 51.3033 119.876 47.0774 117.39C42.8764 114.879 39.6449 111.399 37.3828 106.95C35.1456 102.5 34.027 97.3793 34.027 91.5874C34.027 85.7209 35.158 80.5753 37.4201 76.1506C39.707 71.701 42.951 68.2333 47.152 65.7475C51.353 63.2369 56.3494 61.9815 62.1413 61.9815C67.1378 61.9815 71.5128 62.8888 75.2663 64.7035C79.0199 66.5181 81.9904 69.066 84.1779 72.3473C86.3654 75.6285 87.571 79.4815 87.7947 83.9062H72.8054C72.3828 81.0476 71.2642 78.7482 69.4496 77.0082C67.6598 75.2433 65.3107 74.3608 62.4023 74.3608C59.9414 74.3608 57.7912 75.032 55.9517 76.3743C54.1371 77.6918 52.7202 79.6183 51.701 82.1538C50.6818 84.6893 50.1722 87.7592 50.1722 91.3636C50.1722 95.0178 50.6694 98.125 51.6637 100.685C52.6829 103.246 54.1122 105.197 55.9517 106.539C57.7912 107.882 59.9414 108.553 62.4023 108.553C64.217 108.553 65.8452 108.18 67.2869 107.434C68.7536 106.689 69.9592 105.607 70.9038 104.19C71.8732 102.749 72.5071 101.021 72.8054 99.0075H87.7947C87.5462 103.382 86.353 107.235 84.2152 110.566C82.1023 113.873 79.1815 116.458 75.4528 118.322C71.7241 120.186 67.3118 121.119 62.2159 121.119ZM145.617 79.0589L131.076 79.9538C130.827 78.7109 130.293 77.5923 129.472 76.598C128.652 75.5788 127.571 74.771 126.228 74.1744C124.911 73.5529 123.332 73.2422 121.493 73.2422C119.032 73.2422 116.956 73.7642 115.266 74.8082C113.576 75.8274 112.73 77.1946 112.73 78.9098C112.73 80.277 113.277 81.4329 114.371 82.3775C115.465 83.3221 117.342 84.0803 120.001 84.652L130.367 86.7401C135.935 87.8835 140.087 89.723 142.821 92.2585C145.555 94.794 146.923 98.125 146.923 102.251C146.923 106.005 145.816 109.299 143.604 112.132C141.416 114.966 138.409 117.179 134.581 118.77C130.777 120.336 126.39 121.119 121.418 121.119C113.837 121.119 107.796 119.54 103.297 116.383C98.8224 113.201 96.1998 108.876 95.4292 103.407L111.052 102.587C111.525 104.899 112.668 106.664 114.483 107.882C116.297 109.075 118.622 109.672 121.456 109.672C124.24 109.672 126.477 109.137 128.167 108.068C129.882 106.974 130.752 105.57 130.777 103.855C130.752 102.413 130.143 101.232 128.95 100.312C127.757 99.3679 125.918 98.647 123.432 98.1499L113.513 96.1736C107.92 95.055 103.757 93.1161 101.022 90.3569C98.3128 87.5977 96.958 84.0803 96.958 79.8047C96.958 76.1257 97.9523 72.9563 99.941 70.2965C101.954 67.6367 104.776 65.5859 108.405 64.1442C112.059 62.7024 116.335 61.9815 121.232 61.9815C128.465 61.9815 134.158 63.5103 138.309 66.5678C142.485 69.6254 144.921 73.7891 145.617 79.0589Z" fill="white"/>
</svg>
